<svg xmlns="http://www.w3.org/2000/svg" xmlns:xlink="http://www.w3.org/1999/xlink" width="500" zoomAndPan="magnify" viewBox="0 0 375 374.999991" height="500" preserveAspectRatio="xMidYMid meet" version="1.0"><defs><g/><clipPath id="2c9b195901"><path d="M 148.347656 106.253906 L 241.652344 106.253906 L 241.652344 206.847656 L 148.347656 206.847656 Z M 148.347656 106.253906 " clip-rule="nonzero"/></clipPath><clipPath id="696bfaed9a"><path d="M 241.652344 114.503906 L 241.652344 183.195312 C 241.652344 188.144531 238.546875 192.5625 233.890625 194.242188 L 202.761719 205.445312 C 197.746094 207.253906 192.253906 207.253906 187.238281 205.445312 L 156.109375 194.242188 C 151.453125 192.5625 148.347656 188.144531 148.347656 183.195312 L 148.347656 114.503906 C 148.347656 109.945312 152.039062 106.253906 156.597656 106.253906 L 233.402344 106.253906 C 237.960938 106.253906 241.652344 109.945312 241.652344 114.503906 Z M 241.652344 114.503906 " clip-rule="nonzero"/></clipPath></defs><g clip-path="url(#2c9b195901)"><g clip-path="url(#696bfaed9a)"><path fill="#000000" d="M 148.347656 106.253906 L 241.652344 106.253906 L 241.652344 208.304688 L 148.347656 208.304688 Z M 148.347656 106.253906 " fill-opacity="1" fill-rule="nonzero"/></g></g><g fill="#e8e8e8" fill-opacity="1"><g transform="translate(161.272201, 172.842505)"><g><path d="M 2.6875 0 L 2.6875 -0.796875 C 3.632812 -1.097656 4.25 -1.734375 4.53125 -2.703125 C 4.820312 -3.679688 4.96875 -5.195312 4.96875 -7.25 L 4.96875 -32.71875 C 4.96875 -34.78125 4.820312 -36.296875 4.53125 -37.265625 C 4.25 -38.234375 3.632812 -38.867188 2.6875 -39.171875 L 2.6875 -39.96875 L 13.3125 -39.96875 L 13.3125 -39.171875 C 12.351562 -38.867188 11.726562 -38.234375 11.4375 -37.265625 C 11.15625 -36.296875 11.015625 -34.78125 11.015625 -32.71875 L 11.015625 -3.890625 C 11.015625 -1.984375 11.96875 -1.03125 13.875 -1.03125 L 18.5625 -1.03125 C 21.457031 -1.03125 23.734375 -1.46875 25.390625 -2.34375 C 27.046875 -3.21875 28.441406 -4.875 29.578125 -7.3125 L 30.328125 -7.203125 L 29.875 0 Z M 2.6875 0 "/></g></g></g><g fill="#e8e8e8" fill-opacity="1"><g transform="translate(196.681916, 172.842505)"><g><path d="M 2.6875 0 L 2.6875 -0.796875 C 3.632812 -1.097656 4.25 -1.734375 4.53125 -2.703125 C 4.820312 -3.679688 4.96875 -5.195312 4.96875 -7.25 L 4.96875 -32.71875 C 4.96875 -34.78125 4.820312 -36.296875 4.53125 -37.265625 C 4.25 -38.234375 3.632812 -38.867188 2.6875 -39.171875 L 2.6875 -39.96875 L 30.265625 -39.96875 L 30.671875 -33.640625 L 29.921875 -33.46875 C 28.859375 -35.488281 27.570312 -36.90625 26.0625 -37.71875 C 24.5625 -38.539062 22.40625 -38.953125 19.59375 -38.953125 L 11.015625 -38.953125 L 11.015625 -22.390625 L 15.640625 -22.390625 C 17.960938 -22.390625 19.789062 -22.539062 21.125 -22.84375 C 22.457031 -23.144531 23.445312 -23.617188 24.09375 -24.265625 C 24.75 -24.921875 25.226562 -25.742188 25.53125 -26.734375 L 26.328125 -26.734375 L 26.328125 -17.015625 L 25.53125 -17.015625 C 25.226562 -18.003906 24.75 -18.820312 24.09375 -19.46875 C 23.445312 -20.113281 22.457031 -20.585938 21.125 -20.890625 C 19.789062 -21.203125 17.960938 -21.359375 15.640625 -21.359375 L 11.015625 -21.359375 L 11.015625 -7.25 C 11.015625 -5.195312 11.15625 -3.679688 11.4375 -2.703125 C 11.726562 -1.734375 12.351562 -1.097656 13.3125 -0.796875 L 13.3125 0 Z M 2.6875 0 "/></g></g></g></svg>