<svg xmlns="http://www.w3.org/2000/svg" xmlns:xlink="http://www.w3.org/1999/xlink" width="500" zoomAndPan="magnify" viewBox="0 0 375 374.999991" height="500" preserveAspectRatio="xMidYMid meet" version="1.0"><defs><clipPath id="7042e54c86"><path d="M 142.535156 89.085938 L 232.535156 89.085938 L 232.535156 217.335938 L 142.535156 217.335938 Z M 142.535156 89.085938 " clip-rule="nonzero"/></clipPath></defs><g clip-path="url(#7042e54c86)"><path fill="#332c54" d="M 197.523438 168.949219 L 197.523438 184.722656 L 163.28125 184.722656 L 163.28125 96.140625 L 169.761719 96.140625 L 169.761719 184.710938 L 176.816406 184.710938 L 176.816406 89.085938 L 156.222656 89.085938 L 156.222656 191.773438 L 204.582031 191.773438 L 204.582031 175.996094 L 211.488281 175.996094 L 211.488281 198.140625 L 149.597656 198.140625 L 149.597656 89.519531 L 142.542969 89.519531 L 142.542969 217.335938 L 232.523438 217.335938 L 232.523438 168.949219 Z M 225.46875 210.289062 L 149.597656 210.289062 L 149.597656 205.1875 L 218.550781 205.1875 L 218.550781 175.996094 L 225.46875 175.996094 Z M 225.46875 210.289062 " fill-opacity="1" fill-rule="nonzero"/></g></svg>